<?xml version="1.0" encoding="UTF-8"?>
<svg width="80px" height="270px" viewBox="0 0 80 270" version="1.1" xmlns="http://www.w3.org/2000/svg" xmlns:xlink="http://www.w3.org/1999/xlink">
    <!-- Generator: Sketch 43.2 (39069) - http://www.bohemiancoding.com/sketch -->
    <title>final image sprite-170609</title>
    <desc>Created with Sketch.</desc>
    <defs></defs>
    <g id="Quick-Task---Transformation" stroke="none" stroke-width="1" fill="none" fill-rule="evenodd">
        <g id="final-image-sprite-170609">
            <g id="community" transform="translate(2.000000, 121.000000)" stroke="#58585B" stroke-width="0.2" fill="#58585B">
                <path d="M22.3316,23.1694 L12.5086,23.1694 C12.3276,23.1694 12.1536,23.0984 12.0256,22.9694 C11.8976,22.8414 11.8256,22.6674 11.8256,22.4864 L11.8256,18.8134 C11.8256,16.7544 10.1596,15.0844 8.1006,15.0804 L5.1986,15.0804 C3.1406,15.0844 1.4736,16.7544 1.4736,18.8134 L1.4736,21.2154 L2.9436,21.2154 L2.9436,18.8064 C2.9436,18.4264 3.2506,18.1184 3.6296,18.1184 C4.0096,18.1184 4.3166,18.4264 4.3166,18.8064 L4.3166,21.9494 C4.3166,22.3274 4.0116,22.6334 3.6336,22.6334 L0.7836,22.6334 C0.4056,22.6334 0.1006,22.3274 0.1006,21.9494 L0.1006,18.8064 C0.1196,15.9964 2.3896,13.7234 5.1986,13.6994 L8.0936,13.6994 C10.8996,13.7234 13.1676,15.9924 13.1926,18.7984 L13.1926,21.8034 L21.6416,21.8034 L21.6416,17.4974 C21.6416,17.1184 21.9486,16.8114 22.3286,16.8114 C22.7076,16.8114 23.0156,17.1184 23.0156,17.4974 L23.0156,22.4864 C23.0156,22.6674 22.9426,22.8414 22.8146,22.9694 C22.6866,23.0984 22.5136,23.1694 22.3316,23.1694 Z" id="Stroke-3"></path>
                <path d="M22.3316,18.1665 C21.9546,18.1665 21.6486,17.8605 21.6486,17.4825 L21.6486,14.5445 C21.6566,13.7815 21.3586,13.0485 20.8216,12.5075 C20.2846,11.9665 19.5526,11.6625 18.7906,11.6645 L16.4766,11.6645 C14.9046,11.6765 13.6396,12.9585 13.6476,14.5295 C13.6476,14.9085 13.3406,15.2165 12.9606,15.2165 C12.5816,15.2165 12.2736,14.9085 12.2736,14.5295 C12.2776,12.1985 14.1666,10.3095 16.4986,10.3055 L18.7906,10.3055 C21.1236,10.3055 23.0156,12.1965 23.0156,14.5295 L23.0156,17.4685 C23.0186,17.6515 22.9486,17.8295 22.8206,17.9615 C22.6916,18.0925 22.5156,18.1665 22.3316,18.1665 Z" id="Stroke-7"></path>
                <path d="M6.4552,5.5591 C4.8322,5.5591 3.5162,6.8741 3.5162,8.4971 C3.5162,10.1211 4.8322,11.4371 6.4552,11.4371 C8.0782,11.4371 9.3932,10.1211 9.3932,8.4971 C9.3732,6.8891 8.0642,5.5961 6.4552,5.5961 L6.4552,5.5591 Z M6.4552,12.9061 C4.0572,12.9061 2.1132,10.9621 2.1132,8.5641 C2.1132,6.1651 4.0572,4.2221 6.4552,4.2221 C8.8532,4.2221 10.7972,6.1651 10.7972,8.5641 C10.7932,10.9601 8.8512,12.9021 6.4552,12.9061 Z" id="Stroke-11"></path>
                <path d="M22.9708,23.1694 L13.1408,23.1694 C12.7618,23.1694 12.4538,22.8614 12.4538,22.4824 C12.4538,22.1034 12.7618,21.7954 13.1408,21.7954 L22.2808,21.7954 L22.2808,18.8064 C22.3038,15.9994 24.5738,13.7314 27.3788,13.7064 L30.2738,13.7064 C33.0798,13.7314 35.3488,15.9994 35.3728,18.8064 L35.3728,21.9494 C35.3728,22.3274 35.0668,22.6334 34.6898,22.6334 L31.8248,22.6334 C31.4468,22.6334 31.1408,22.3274 31.1408,21.9494 L31.1408,18.8064 C31.1408,18.4264 31.4488,18.1184 31.8278,18.1184 C32.2068,18.1184 32.5148,18.4264 32.5148,18.8064 L32.5148,21.2154 L33.9838,21.2154 L33.9838,18.8064 C33.9838,16.7474 32.3178,15.0774 30.2598,15.0734 L27.3868,15.0734 C25.3278,15.0774 23.6618,16.7474 23.6618,18.8064 L23.6618,22.4794 C23.6638,22.6624 23.5918,22.8394 23.4618,22.9694 C23.3318,23.1004 23.1548,23.1714 22.9708,23.1694 Z" id="Stroke-15"></path>
                <path d="M28.6427,5.5591 C27.0197,5.5591 25.7047,6.8741 25.7047,8.4971 C25.7047,10.1211 27.0197,11.4371 28.6427,11.4371 C30.2657,11.4371 31.5817,10.1211 31.5817,8.4971 C31.5617,6.8891 30.2517,5.5961 28.6427,5.5961 L28.6427,5.5591 Z M28.6427,12.9061 C26.2447,12.9061 24.3007,10.9621 24.3007,8.5641 C24.3007,6.1651 26.2447,4.2221 28.6427,4.2221 C31.0407,4.2221 32.9847,6.1651 32.9847,8.5641 C32.9807,10.9601 31.0387,12.9021 28.6427,12.9061 Z" id="Stroke-19"></path>
                <path d="M17.4459,2.2602 C15.8229,2.2602 14.5079,3.5752 14.5079,5.1982 C14.5079,6.8222 15.8229,8.1382 17.4459,8.1382 C19.0689,8.1382 20.3849,6.8222 20.3849,5.1982 C20.3649,3.5902 19.0549,2.2972 17.4459,2.2972 L17.4459,2.2602 Z M17.4459,9.6072 C15.0479,9.6072 13.1039,7.6632 13.1039,5.2652 C13.1039,2.8672 15.0479,0.9232 17.4459,0.9232 C19.8439,0.9232 21.7879,2.8672 21.7879,5.2652 C21.7839,7.6612 19.8419,9.6032 17.4459,9.6072 Z" id="Stroke-23"></path>
            </g>
            <g id="download" transform="translate(4.000000, 90.000000)" fill="#58585B">
                <path d="M17.2169,29.1382 C16.7349,29.1712 16.3179,28.8082 16.2839,28.3262 C16.2499,27.8452 16.6129,27.4272 17.0949,27.3942 C23.6709,26.4662 28.4089,20.6102 27.9439,13.9862 C27.4779,7.3612 21.9679,2.2242 15.3279,2.2242 C8.6869,2.2242 3.1769,7.3612 2.7119,13.9862 C2.2469,20.6102 6.9849,26.4662 13.5609,27.3942 C13.8699,27.4382 14.1339,27.6432 14.2509,27.9332 C14.3679,28.2232 14.3209,28.5542 14.1289,28.8002 C13.9359,29.0472 13.6269,29.1722 13.3169,29.1282 C5.8279,28.0752 0.4299,21.4082 0.9579,13.8632 C1.4869,6.3192 7.7599,0.4692 15.3229,0.4692 C22.8859,0.4692 29.1599,6.3192 29.6879,13.8632 C30.2159,21.4082 24.8179,28.0752 17.3289,29.1282 L17.2169,29.1282 L17.2169,29.1382 Z" id="Fill-25"></path>
            </g>
            <path d="M19.1544,109.8374 C18.6724,109.8374 18.2824,109.4474 18.2824,108.9664 L18.2824,97.1444 C18.2824,96.6594 18.6754,96.2674 19.1584,96.2674 C19.6434,96.2674 20.0354,96.6594 20.0354,97.1444 L20.0354,108.9564 C20.0384,109.1914 19.9464,109.4164 19.7804,109.5824 C19.6144,109.7484 19.3884,109.8404 19.1544,109.8374" id="Fill-27" fill="#58585B"></path>
            <path d="M19.2198,109.9311 C18.8618,109.9371 18.5358,109.7231 18.3998,109.3921 C18.2628,109.0611 18.3428,108.6801 18.6008,108.4311 L22.5948,104.4381 C22.8158,104.2161 23.1378,104.1301 23.4398,104.2111 C23.7418,104.2921 23.9778,104.5281 24.0588,104.8291 C24.1398,105.1321 24.0528,105.4541 23.8318,105.6751 L19.8388,109.6691 C19.6758,109.8351 19.4528,109.9301 19.2198,109.9311" id="Fill-29" fill="#58585B"></path>
            <path d="M19.2013,109.9311 C18.9693,109.9331 18.7463,109.8411 18.5823,109.6781 L14.5883,105.6751 C14.2463,105.3331 14.2463,104.7801 14.5883,104.4381 C14.9303,104.0961 15.4843,104.0961 15.8263,104.4381 L19.8203,108.3941 C20.1083,108.6361 20.2083,109.0371 20.0683,109.3871 C19.9273,109.7371 19.5773,109.9561 19.2013,109.9311" id="Fill-31" fill="#58585B"></path>
            <path d="M24.526,112.4536 L14.213,112.4536 C13.73,112.4536 13.337,112.0606 13.337,111.5766 C13.337,111.0926 13.73,110.7006 14.213,110.7006 L24.526,110.7006 C24.839,110.7006 25.129,110.8676 25.285,111.1386 C25.442,111.4096 25.442,111.7436 25.285,112.0156 C25.129,112.2866 24.839,112.4536 24.526,112.4536" id="Fill-33" fill="#58585B"></path>
            <path d="M23.7953773,71.9867575 L17.8133773,77.9687575 L15.1663773,75.3217575 C15.0243773,75.1817575 14.9673773,74.9767575 15.0183773,74.7837575 C15.0683773,74.5907575 15.2183773,74.4397575 15.4113773,74.3867575 C15.6033773,74.3337575 15.8093773,74.3877575 15.9513773,74.5287575 L17.7863773,76.3627575 L22.9833773,71.1667575 C23.2103773,70.9427575 23.5753773,70.9447575 23.7993773,71.1707575 C24.0243773,71.3977575 24.0223773,71.7627575 23.7953773,71.9867575" id="Fill-39" fill="#58585B"></path>
            <g id="career-certifications" transform="translate(5.000000, 60.000000)" fill="#58585B">
                <path d="M10.227,22.174 C10.353,22.175 10.477,22.205 10.589,22.262 C11.321,22.626 12.103,22.879 12.909,23.012 C13.307,23.077 13.599,23.421 13.598,23.824 L13.598,27.053 C13.598,27.448 13.917,27.768 14.312,27.768 L15.856,27.768 C16.252,27.768 16.575,27.449 16.58,27.053 L16.58,23.427 C16.575,23.075 16.795,22.759 17.127,22.642 C17.841,22.401 18.518,22.062 19.139,21.635 C19.467,21.405 19.912,21.443 20.198,21.724 L22.668,24.221 C22.804,24.357 22.988,24.433 23.18,24.433 C23.372,24.433 23.556,24.357 23.692,24.221 L24.777,23.135 C24.912,23.002 24.988,22.819 24.988,22.628 C24.988,22.438 24.912,22.255 24.777,22.121 L22.051,19.395 C21.8,19.147 21.737,18.767 21.892,18.45 C22.197,17.819 22.423,17.152 22.562,16.465 C22.642,16.085 22.977,15.812 23.365,15.812 L27.08,15.812 C27.272,15.815 27.458,15.739 27.594,15.603 C27.73,15.466 27.806,15.281 27.804,15.089 L27.804,13.553 C27.804,13.153 27.479,12.83 27.08,12.83 L23.18,12.83 C22.818,12.83 22.499,12.593 22.394,12.247 C22.179,11.576 21.883,10.933 21.512,10.333 C21.312,10.007 21.363,9.586 21.636,9.318 L24.212,6.759 C24.351,6.628 24.43,6.447 24.433,6.256 C24.434,6.064 24.358,5.88 24.221,5.744 L23.127,4.659 C22.991,4.524 22.807,4.447 22.615,4.447 C22.423,4.447 22.239,4.524 22.103,4.659 L19.456,7.306 C19.195,7.569 18.79,7.623 18.468,7.439 C17.816,7.054 17.116,6.757 16.386,6.556 C16.023,6.464 15.769,6.137 15.768,5.762 L15.768,2.347 C15.768,1.953 15.448,1.632 15.054,1.632 L13.545,1.632 C13.152,1.637 12.835,1.955 12.83,2.347 L12.83,5.762 C12.833,6.14 12.579,6.472 12.212,6.565 C11.417,6.766 10.655,7.084 9.954,7.509 C9.628,7.71 9.207,7.658 8.939,7.385 L6.786,5.206 C6.647,5.058 6.45,4.98 6.248,4.994 C6.059,4.995 5.877,5.071 5.745,5.206 L4.65,6.292 C4.373,6.573 4.373,7.025 4.65,7.306 L6.874,9.53 C7.141,9.793 7.195,10.203 7.006,10.527 C6.574,11.277 6.261,12.09 6.08,12.936 C6,13.316 5.665,13.589 5.277,13.589 L2.374,13.589 C1.981,13.593 1.664,13.911 1.659,14.303 L1.659,15.847 C1.659,16.242 1.979,16.562 2.374,16.562 L5.471,16.562 C5.832,16.562 6.151,16.799 6.256,17.145 C6.51,17.979 6.894,18.768 7.394,19.483 C7.621,19.81 7.581,20.253 7.298,20.533 L5.198,22.642 C5.07,22.787 5.007,22.978 5.021,23.171 C5.021,23.36 5.098,23.541 5.233,23.674 L6.283,24.759 C6.564,25.036 7.016,25.036 7.298,24.759 L9.636,22.421 C9.791,22.262 10.005,22.173 10.227,22.174 M15.865,29.418 L14.321,29.418 C13.015,29.418 11.956,28.359 11.956,27.053 L11.956,24.503 C11.429,24.376 10.912,24.204 10.412,23.991 L8.471,25.933 C7.544,26.857 6.045,26.857 5.118,25.933 L4.033,24.839 C3.587,24.395 3.336,23.792 3.336,23.162 C3.336,22.533 3.587,21.929 4.033,21.486 L5.656,19.862 C5.345,19.343 5.082,18.797 4.871,18.23 L2.374,18.23 C1.746,18.232 1.142,17.984 0.696,17.54 C0.251,17.096 0,16.494 0,15.865 L0,14.321 C0.005,13.013 1.067,11.956 2.374,11.956 L4.624,11.956 C4.791,11.382 5.01,10.824 5.277,10.289 L3.512,8.524 C2.588,7.597 2.588,6.097 3.512,5.171 L4.58,4.033 C5.021,3.59 5.622,3.341 6.248,3.344 C6.877,3.342 7.481,3.594 7.924,4.042 L9.689,5.806 C10.172,5.544 10.677,5.322 11.198,5.145 L11.198,2.347 C11.212,1.057 12.254,0.015 13.545,0 L15.089,0 C16.388,0 17.444,1.049 17.454,2.347 L17.454,5.145 C17.9,5.291 18.337,5.467 18.759,5.674 L20.903,3.494 C21.829,2.576 23.322,2.576 24.248,3.494 L25.342,4.58 C25.79,5.023 26.042,5.626 26.042,6.256 C26.042,6.886 25.79,7.49 25.342,7.933 L23.215,10.059 C23.419,10.419 23.602,10.79 23.762,11.171 L27.08,11.171 C28.385,11.176 29.444,12.23 29.454,13.536 L29.454,15.08 C29.454,16.392 28.392,17.457 27.08,17.462 L24.009,17.462 C23.895,17.859 23.757,18.247 23.595,18.627 L25.915,20.947 C26.839,21.871 26.839,23.368 25.915,24.292 L24.83,25.385 C23.901,26.305 22.406,26.305 21.477,25.385 L19.465,23.374 C19.066,23.612 18.65,23.821 18.221,24 L18.221,27.053 C18.216,28.354 17.166,29.408 15.865,29.418" id="Fill-41"></path>
            </g>
            <path d="M25.9791,12.563 L13.6511,12.563 C13.1671,12.563 12.7741,12.17 12.7741,11.686 C12.7741,11.202 13.1671,10.81 13.6511,10.81 L25.9791,10.81 C26.4631,10.81 26.8551,11.202 26.8551,11.686 C26.8551,12.17 26.4631,12.563 25.9791,12.563" id="Fill-43" fill="#58585B"></path>
            <path d="M25.9791,17.0532 L13.6511,17.0532 C13.1671,17.0532 12.7741,16.6612 12.7741,16.1772 C12.7741,15.6932 13.1671,15.3002 13.6511,15.3002 L25.9791,15.3002 C26.4631,15.3002 26.8551,15.6932 26.8551,16.1772 C26.8551,16.6612 26.4631,17.0532 25.9791,17.0532" id="Fill-45" fill="#58585B"></path>
            <path d="M20.8136,21.5908 L13.6506,21.5908 C13.1676,21.5908 12.7746,21.1978 12.7746,20.7148 C12.7746,20.2308 13.1676,19.8378 13.6506,19.8378 L20.8136,19.8378 C21.2976,19.8378 21.6896,20.2308 21.6896,20.7148 C21.6896,21.1978 21.2976,21.5908 20.8136,21.5908" id="Fill-47" fill="#58585B"></path>
            <g id="note" transform="translate(8.000000, 0.000000)" fill="#58585B">
                <path d="M21.2511,29.2129 L2.4171,29.2129 C1.1841,29.2129 0.1861,28.2139 0.1861,26.9819 L0.1861,2.2219 C0.1901,0.9939 1.1881,0.0009 2.4171,0.0009 L16.8451,0.0009 C17.0831,0.0019 17.3091,0.0999 17.4731,0.2719 L23.0981,6.0939 C23.4351,6.4429 23.4241,6.9999 23.0741,7.3369 C22.7251,7.6729 22.1691,7.6619 21.8321,7.3129 L16.4791,1.7439 L2.4171,1.7439 C2.1551,1.7489 1.9431,1.9599 1.9391,2.2219 L1.9391,26.9909 C1.9431,27.2529 2.1551,27.4639 2.4171,27.4689 L21.2511,27.4689 C21.5131,27.4639 21.7241,27.2529 21.7291,26.9909 L21.7291,10.2379 C21.7291,9.7539 22.1221,9.3609 22.6051,9.3609 C23.0901,9.3609 23.4821,9.7539 23.4821,10.2379 L23.4821,26.9909 C23.4771,28.2199 22.4801,29.2129 21.2511,29.2129" id="Fill-49"></path>
            </g>
            <path d="M30.4229,7.6782 L26.1289,7.6782 C24.8969,7.6782 23.8979,6.6792 23.8979,5.4472 L23.8979,1.5192 C23.8979,1.0352 24.2909,0.6422 24.7749,0.6422 C25.2579,0.6422 25.6509,1.0352 25.6509,1.5192 L25.6509,5.4472 C25.6559,5.7092 25.8669,5.9202 26.1289,5.9252 L30.4229,5.9252 C30.9069,5.9252 31.2989,6.3182 31.2989,6.8022 C31.2989,7.2862 30.9069,7.6782 30.4229,7.6782" id="Fill-51" fill="#58585B"></path>
            <g id="chat" transform="translate(2.000000, 150.000000)" fill="#58585B">
                <path d="M29.234,28.8345 C29.023,28.8355 28.818,28.7575 28.661,28.6165 L22.87,23.3985 L11.598,23.3985 C11.128,23.3985 10.748,23.0185 10.748,22.5485 C10.748,22.0795 11.128,21.6985 11.598,21.6985 L23.207,21.6985 C23.418,21.6975 23.622,21.7755 23.779,21.9165 L28.398,26.0715 L28.398,22.5445 C28.398,22.0765 28.776,21.6985 29.243,21.6985 L32.307,21.6985 L32.307,7.7165 L26.534,7.7165 C26.067,7.7165 25.689,7.3385 25.689,6.8715 L25.689,2.2075 L2.661,2.2075 L2.661,16.1895 L6.507,16.1895 C6.974,16.1895 7.352,16.5675 7.352,17.0345 L7.352,20.5535 L11.97,16.3985 C12.12,16.2695 12.309,16.1945 12.507,16.1895 L25.679,16.1895 L25.679,10.0625 C25.679,9.5935 26.06,9.2125 26.529,9.2125 C26.999,9.2125 27.38,9.5935 27.38,10.0625 L27.38,17.0345 C27.38,17.5015 27.001,17.8805 26.534,17.8805 L12.898,17.8805 L7.052,23.1075 C6.805,23.3355 6.445,23.3955 6.137,23.2595 C5.83,23.1225 5.632,22.8165 5.634,22.4805 L5.634,17.9355 L1.816,17.9355 C1.58,17.9385 1.354,17.8425 1.192,17.6715 C1.03,17.5005 0.946,17.2705 0.962,17.0345 L0.962,1.3535 C0.962,0.8865 1.34,0.5075 1.807,0.5075 L26.534,0.5075 C27.001,0.5075 27.38,0.8865 27.38,1.3535 L27.38,6.0075 L33.143,6.0075 C33.61,6.0075 33.988,6.3865 33.988,6.8535 L33.988,22.5445 C33.988,23.0115 33.61,23.3895 33.143,23.3895 L30.088,23.3895 L30.088,27.9355 C30.104,28.1705 30.02,28.4005 29.858,28.5715 C29.696,28.7425 29.47,28.8385 29.234,28.8345" id="Fill-53"></path>
            </g>
            <g id="education-2" transform="translate(6.000000, 33.000000)" fill-rule="nonzero" fill="#58585B">
                <path d="M27.9120001,10.9047619 L24.9240001,10.9047619 L24.9240001,7.94047619 C24.9240001,7.4440774 24.5183701,7.04166667 24.0180001,7.04166667 C23.5176301,7.04166667 23.1120001,7.4440774 23.1120001,7.94047619 L23.1120001,10.9047619 L20.1240001,10.9047619 C19.6236301,10.9047619 19.2180001,11.3071726 19.2180001,11.8035714 C19.2180001,12.2999702 19.6236301,12.702381 20.1240001,12.702381 L23.1120001,12.702381 L23.1120001,15.6666667 C23.1120001,16.1630655 23.5176301,16.5654762 24.0180001,16.5654762 C24.5183701,16.5654762 24.9240001,16.1630655 24.9240001,15.6666667 L24.9240001,12.702381 L27.9120001,12.702381 C28.4123701,12.702381 28.8180001,12.2999702 28.8180001,11.8035714 C28.8180001,11.3071726 28.4123701,10.9047619 27.9120001,10.9047619 L27.9120001,10.9047619 Z" id="Shape"></path>
                <path d="M17.7360001,24.5357143 C16.2688059,24.5300653 14.9843187,23.5573226 14.5920001,22.1547619 L13.8720001,20.0357143 L7.1160001,20.0357143 L6.4200001,22.1428571 C6.02648174,23.5496647 4.73565106,24.5234944 3.2640001,24.5238095 C2.4050239,24.5430361 1.57450573,24.2179133 0.96022589,23.6219514 C0.345946046,23.0259895 -0.00021850016,22.2095186 1.03473605e-07,21.3571429 C0.00324557356,20.9510199 0.0762930478,20.5484214 0.216000103,20.1666667 L6.3120001,3.41666667 C7.1160001,1.14285714 8.5320001,0 10.5120001,0 C12.4920001,0 13.9440001,1.19047619 14.7480001,3.42857143 L20.7480001,20.1785714 C20.8877072,20.5603262 20.9607546,20.9629247 20.9640001,21.3690476 C20.9640543,22.2151245 20.622818,23.0260386 20.0163931,23.6209412 C19.4099682,24.2158438 18.5887914,24.5452565 17.7360001,24.5357143 L17.7360001,24.5357143 Z M6.4560001,18.297619 L14.5200001,18.297619 C14.9102276,18.2927579 15.2591482,18.5379485 15.3840001,18.9047619 L16.3080001,21.6309524 C16.4696634,22.28085 17.0613042,22.7346228 17.7360001,22.7261905 C18.1133888,22.7423542 18.4811947,22.605669 18.7549996,22.3475064 C19.0288046,22.0893438 19.1850953,21.7318741 19.1880001,21.3571429 C19.1877546,21.1500807 19.15121,20.9446385 19.0800001,20.75 L13.0800001,3.98809524 C12.3840001,2.02380952 11.4120001,1.76190476 10.5480001,1.76190476 C9.6840001,1.76190476 8.7480001,2.02380952 8.0520001,3.98809524 L1.9440001,20.75 L1.9440001,20.75 C1.87279017,20.9446385 1.83624563,21.1500807 1.8360001,21.3571429 C1.83890494,21.7318741 1.99519558,22.0893438 2.26900056,22.3475064 C2.54280555,22.605669 2.91061137,22.7423542 3.2880001,22.7261905 C3.96269599,22.7346228 4.55433684,22.28085 4.7160001,21.6309524 L5.6040001,18.9047619 C5.72746278,18.5421291 6.070179,18.2979065 6.4560001,18.297619 L6.4560001,18.297619 Z M13.1520001,15.9761905 L7.8480001,15.9761905 C7.55310612,15.9812359 7.27443358,15.8426193 7.10210001,15.6051667 C6.92976644,15.3677142 6.88564364,15.0615621 6.9840001,14.7857143 L9.6000001,6.95238095 C9.72064442,6.58085821 10.070565,6.33014349 10.4640001,6.33333333 L10.5600001,6.33333333 C10.9534352,6.33014349 11.3033558,6.58085821 11.4240001,6.95238095 L14.0160001,14.7857143 C14.1143566,15.0615621 14.0702338,15.3677142 13.8979002,15.6051667 C13.7255666,15.8426193 13.4468941,15.9812359 13.1520001,15.9761905 L13.1520001,15.9761905 Z M9.0480001,14.1785714 L11.8560001,14.1785714 L10.4640001,9.96428571 L9.0480001,14.1785714 Z" id="Shape"></path>
            </g>
            <g id="find-people" transform="translate(7.000000, 180.000000)" fill="#58585B">
                <path d="M22.2136905,0.20024 L4.02083333,0.20024 C2.75892857,0.20024 1.73630952,1.23104 1.73630952,2.50304 L1.73630952,26.67344 C1.73630952,27.94544 2.75892857,28.97624 4.02083333,28.97624 L22.2136905,28.97624 C23.4755952,28.97624 24.4982143,27.94544 24.4982143,26.67344 L24.4982143,2.50304 C24.4982143,1.23104 23.4755952,0.20024 22.2136905,0.20024 M22.2136905,1.88024 C22.5541667,1.88024 22.8315476,2.15984 22.8315476,2.50304 L22.8315476,26.67344 C22.8315476,27.01664 22.5541667,27.29624 22.2136905,27.29624 L4.02083333,27.29624 C3.68035714,27.29624 3.40297619,27.01664 3.40297619,26.67344 L3.40297619,2.50304 C3.40297619,2.15984 3.68035714,1.88024 4.02083333,1.88024 L22.2136905,1.88024" id="Fill-1"></path>
                <path d="M4.21583333,8.012 L0.893214286,8.012 C0.400357143,8.012 0.000357142857,8.4152 0.000357142857,8.912 C0.000357142857,9.4088 0.400357143,9.812 0.893214286,9.812 L4.22892857,9.812 L4.21583333,9.812 C4.70869048,9.812 5.10869048,9.4088 5.10869048,8.912 C5.10869048,8.4152 4.70869048,8.012 4.21583333,8.012" id="Fill-4"></path>
                <path d="M4.21583333,19.088 L0.893214286,19.088 C0.400357143,19.088 0.000357142857,19.4912 0.000357142857,19.988 C0.000357142857,20.4848 0.400357143,20.888 0.893214286,20.888 L4.22892857,20.888 L4.21583333,20.888 C4.70869048,20.888 5.10869048,20.4848 5.10869048,19.988 C5.10869048,19.4912 4.70869048,19.088 4.21583333,19.088" id="Fill-6"></path>
                <path d="M14.9603571,14.2364 L12.2567857,14.2364 C9.63654762,14.2364 7.5127381,16.3772 7.5127381,19.0184 L7.5127381,22.3424 C7.47583333,22.7396 7.76392857,23.0924 8.15797619,23.1296 C8.17702381,23.132 8.19607143,23.1332 8.21511905,23.1332 C8.59607143,23.1332 8.90440476,22.8212 8.90440476,22.4372 L8.90440476,19.0316 C8.90440476,17.1656 10.4055952,15.6536 12.2567857,15.6536 L14.9603571,15.6536 C15.8484524,15.6548 16.6996429,16.0124 17.3246429,16.6472 C18.0722619,17.486 18.4305952,18.6056 18.3115476,19.7264 L18.3115476,21.92 L17.0686905,21.92 L17.0686905,19.7264 C17.1436905,19.3508 16.9020238,18.9848 16.5282143,18.9092 C16.1555952,18.8336 15.7913095,19.0772 15.7175,19.4528 C15.6984524,19.5428 15.6984524,19.6364 15.7175,19.7264 L15.7175,22.6148 C15.7175,22.9988 16.0258333,23.3108 16.4067857,23.3108 L19.0282143,23.3108 C19.4091667,23.3108 19.7175,22.9988 19.7175,22.6148 L19.7175,19.7264 C19.7044048,16.388 17.5686905,14.2364 14.9603571,14.2364" id="Fill-8"></path>
                <path d="M13.6222619,12.4106 C12.0472619,12.4106 10.769881,11.123 10.769881,9.5354 C10.769881,7.9478 12.0472619,6.6602 13.6222619,6.6602 C15.1972619,6.6602 16.4746429,7.9478 16.4746429,9.5354 C16.4746429,11.123 15.1972619,12.4106 13.6222619,12.4106 M13.6222619,5.4614 C11.3829762,5.4614 9.5675,7.2914 9.5675,9.5498 C9.5675,11.807 11.3829762,13.6358 13.6222619,13.6358 C15.8615476,13.6358 17.6770238,11.807 17.6770238,9.5498 C17.6770238,7.2914 15.8615476,5.4614 13.6222619,5.4614" id="Fill-10"></path>
            </g>
            <g id="Group" transform="translate(6.000000, 211.000000)" fill-rule="nonzero" fill="#58585B">
                <path d="M24.9731554,22.0304271 L15.603021,13.452135 C15.3908475,13.2556781 15.2995996,12.9609511 15.3636495,12.678975 C15.4276995,12.3969988 15.6373166,12.1706124 15.9135401,12.0850932 C16.1897636,11.999574 16.4906286,12.0679145 16.7028021,12.2643715 L26.0729364,20.8426636 L24.9731554,22.0304271 Z" id="Shape"></path>
                <path d="M21.1789108,25.9126541 C20.9542794,25.9151389 20.7388819,25.8233956 20.5850291,25.6597045 L9.69719691,13.9580343 C7.26362663,14.8264636 4.5471006,14.1946134 2.74658082,12.3413562 C1.12469186,10.7092788 0.455854028,8.35796076 0.975933362,6.11659559 C1.03854455,5.82960348 1.25289142,5.59971709 1.53480704,5.5172052 C1.81672267,5.43469331 2.12119354,5.51273061 2.32866403,5.72067442 L5.46303996,8.85505035 L8.76238304,5.55570727 L5.54002463,2.33334885 C5.33215219,2.12741864 5.25277833,1.82470277 5.3328611,1.54326903 C5.41294388,1.26183529 5.63979956,1.04625791 5.92494799,0.980618188 C8.21489086,0.453554062 10.6150829,1.13873 12.2816823,2.79525688 C14.2306947,4.72947622 14.7782047,7.66851004 13.6564086,10.1747876 C13.4772279,10.5817404 13.0020728,10.7663861 12.59512,10.5872054 C12.1881672,10.4080247 12.0035214,9.9328696 12.182702,9.52591678 C13.0469768,7.62599355 12.6293301,5.38828658 11.1379101,3.92803134 C10.2725848,3.06506898 9.13261144,2.53204388 7.91555165,2.42133134 L10.4670436,4.97282332 C10.7575567,5.28186154 10.7575567,5.76356613 10.4670436,6.07260435 L6.06791952,10.4717285 C5.7588813,10.7622416 5.27717671,10.7622416 4.96813849,10.4717285 L2.48263337,8.06320801 C2.62501191,9.69632347 3.54822818,11.1598173 4.96081265,11.9916483 C6.37339712,12.8234794 8.10100693,12.920982 9.59821662,12.2533737 C9.91476709,12.1012438 10.2934573,12.1725267 10.5330305,12.4293387 L21.805786,24.52693 C22.0573543,24.761854 22.1311788,25.1310013 21.9893093,25.4446077 C21.8474398,25.758214 21.5214469,25.9464915 21.1789108,25.9126541 L21.1789108,25.9126541 Z" id="Shape"></path>
                <path d="M23.5434401,27.1224132 C21.5268977,27.1224132 19.892167,25.4876826 19.892167,23.4711402 C19.892167,21.4545978 21.5268977,19.8198672 23.5434401,19.8198672 C25.5599825,19.8198672 27.1947131,21.4545978 27.1947131,23.4711402 C27.1947131,25.4876826 25.5599825,27.1224132 23.5434401,27.1224132 L23.5434401,27.1224132 Z M23.5434401,21.4365453 C22.4211996,21.4365617 21.5108893,22.3452554 21.5088781,23.4674941 C21.506867,24.5897328 22.4139146,25.5016833 23.5361478,25.5057219 C24.658381,25.5097606 25.5719688,24.6043621 25.578035,23.482138 C25.5780512,22.3566694 24.6688924,21.4425962 23.5434401,21.4365453 Z" id="Shape"></path>
            </g>
            <g id="note" transform="translate(8.000000, 240.000000)" fill="#58585B">
                <path d="M21.2511,29.2129 L2.4171,29.2129 C1.1841,29.2129 0.1861,28.2139 0.1861,26.9819 L0.1861,2.2219 C0.1901,0.9939 1.1881,0.0009 2.4171,0.0009 L16.8451,0.0009 C17.0831,0.0019 17.3091,0.0999 17.4731,0.2719 L23.0981,6.0939 C23.4351,6.4429 23.4241,6.9999 23.0741,7.3369 C22.7251,7.6729 22.1691,7.6619 21.8321,7.3129 L16.4791,1.7439 L2.4171,1.7439 C2.1551,1.7489 1.9431,1.9599 1.9391,2.2219 L1.9391,26.9909 C1.9431,27.2529 2.1551,27.4639 2.4171,27.4689 L21.2511,27.4689 C21.5131,27.4639 21.7241,27.2529 21.7291,26.9909 L21.7291,10.2379 C21.7291,9.7539 22.1221,9.3609 22.6051,9.3609 C23.0901,9.3609 23.4821,9.7539 23.4821,10.2379 L23.4821,26.9909 C23.4771,28.2199 22.4801,29.2129 21.2511,29.2129" id="Fill-49"></path>
                <g id="arrow" transform="translate(11.500000, 15.000000) rotate(-90.000000) translate(-11.500000, -15.000000) translate(4.500000, 7.500000)">
                    <path d="M8.52497817,14.2265433 L8.52497817,8.57673694 C8.52497817,8.25778892 8.86409447,8 9.280871,8 C9.69937331,8 10.0376267,8.25778892 10.0376267,8.57673694 L10.0376267,14.219967 C10.0402154,14.3745089 9.9608294,14.5224744 9.81758943,14.6316401 C9.67434946,14.7408059 9.47933601,14.8013073 9.27741943,14.7993345 C8.8615058,14.7993345 8.52497817,14.5428608 8.52497817,14.2265433 Z" id="Fill-27"></path>
                    <path d="M1.38881794,10.1480449 C0.974639967,10.1480449 0.63888238,9.8122873 0.63888238,9.39810933 C0.517112892,6.97608489 1.42607501,4.61566128 3.14086803,2.90086826 C4.85566105,1.18607524 7.21608466,0.277113121 9.6381091,0.398882609 C9.6881048,0.398882609 9.78809621,1.87875545 9.59811254,1.88875459 C7.58600657,1.77112412 5.61957226,2.5191673 4.19436924,3.94437032 C2.76916621,5.36957335 2.02112303,7.33600766 2.1387535,9.34811362 C2.15261195,9.55552017 2.07976251,9.75937477 1.93759233,9.91102296 C1.79542216,10.0626711 1.59668645,10.1485074 1.38881794,10.1480449 Z" id="Shape" fill-rule="nonzero" transform="translate(5.168741, 5.268047) rotate(-270.000000) translate(-5.168741, -5.268047) "></path>
                    <path d="M9.76471498,14.3392146 C9.45577477,14.344786 9.17444934,14.1460717 9.05708658,13.8387146 C8.93886085,13.5313574 9.00789777,13.1775717 9.23054183,12.9463574 L12.6772099,9.2385717 C12.8679244,9.03242884 13.145798,8.9525717 13.4064124,9.02778598 C13.6670268,9.10300027 13.8706857,9.32214312 13.9405855,9.60164312 C14.0104854,9.88300027 13.9354078,10.1820003 13.7446933,10.3872146 L10.2988881,14.0959288 C10.1582254,14.2500717 9.965785,14.338286 9.76471498,14.3392146" id="Fill-29"></path>
                    <path d="M9.16808902,14.708128 C8.96788196,14.7099851 8.77544155,14.6245566 8.63391587,14.4731994 L5.18724776,10.756128 C4.89211493,10.4385566 4.89211493,9.92505658 5.18724776,9.60748515 C5.48238058,9.28991372 5.96046123,9.28991372 6.25559406,9.60748515 L9.70226217,13.2809137 C9.95079507,13.505628 10.0370912,13.8779851 9.91627662,14.2029851 C9.79459905,14.5279851 9.49256253,14.7313423 9.16808902,14.708128" id="Fill-31"></path>
                </g>
            </g>
            <g id="light" transform="translate(42.000000, 0.000000)" fill="#FFFFFF">
                <g id="community" transform="translate(0.000000, 121.000000)" stroke="#FFFFFF" stroke-width="0.2">
                    <path d="M22.3316,23.1694 L12.5086,23.1694 C12.3276,23.1694 12.1536,23.0984 12.0256,22.9694 C11.8976,22.8414 11.8256,22.6674 11.8256,22.4864 L11.8256,18.8134 C11.8256,16.7544 10.1596,15.0844 8.1006,15.0804 L5.1986,15.0804 C3.1406,15.0844 1.4736,16.7544 1.4736,18.8134 L1.4736,21.2154 L2.9436,21.2154 L2.9436,18.8064 C2.9436,18.4264 3.2506,18.1184 3.6296,18.1184 C4.0096,18.1184 4.3166,18.4264 4.3166,18.8064 L4.3166,21.9494 C4.3166,22.3274 4.0116,22.6334 3.6336,22.6334 L0.7836,22.6334 C0.4056,22.6334 0.1006,22.3274 0.1006,21.9494 L0.1006,18.8064 C0.1196,15.9964 2.3896,13.7234 5.1986,13.6994 L8.0936,13.6994 C10.8996,13.7234 13.1676,15.9924 13.1926,18.7984 L13.1926,21.8034 L21.6416,21.8034 L21.6416,17.4974 C21.6416,17.1184 21.9486,16.8114 22.3286,16.8114 C22.7076,16.8114 23.0156,17.1184 23.0156,17.4974 L23.0156,22.4864 C23.0156,22.6674 22.9426,22.8414 22.8146,22.9694 C22.6866,23.0984 22.5136,23.1694 22.3316,23.1694 Z" id="Stroke-3"></path>
                    <path d="M22.3316,18.1665 C21.9546,18.1665 21.6486,17.8605 21.6486,17.4825 L21.6486,14.5445 C21.6566,13.7815 21.3586,13.0485 20.8216,12.5075 C20.2846,11.9665 19.5526,11.6625 18.7906,11.6645 L16.4766,11.6645 C14.9046,11.6765 13.6396,12.9585 13.6476,14.5295 C13.6476,14.9085 13.3406,15.2165 12.9606,15.2165 C12.5816,15.2165 12.2736,14.9085 12.2736,14.5295 C12.2776,12.1985 14.1666,10.3095 16.4986,10.3055 L18.7906,10.3055 C21.1236,10.3055 23.0156,12.1965 23.0156,14.5295 L23.0156,17.4685 C23.0186,17.6515 22.9486,17.8295 22.8206,17.9615 C22.6916,18.0925 22.5156,18.1665 22.3316,18.1665 Z" id="Stroke-7"></path>
                    <path d="M6.4552,5.5591 C4.8322,5.5591 3.5162,6.8741 3.5162,8.4971 C3.5162,10.1211 4.8322,11.4371 6.4552,11.4371 C8.0782,11.4371 9.3932,10.1211 9.3932,8.4971 C9.3732,6.8891 8.0642,5.5961 6.4552,5.5961 L6.4552,5.5591 Z M6.4552,12.9061 C4.0572,12.9061 2.1132,10.9621 2.1132,8.5641 C2.1132,6.1651 4.0572,4.2221 6.4552,4.2221 C8.8532,4.2221 10.7972,6.1651 10.7972,8.5641 C10.7932,10.9601 8.8512,12.9021 6.4552,12.9061 Z" id="Stroke-11"></path>
                    <path d="M22.9708,23.1694 L13.1408,23.1694 C12.7618,23.1694 12.4538,22.8614 12.4538,22.4824 C12.4538,22.1034 12.7618,21.7954 13.1408,21.7954 L22.2808,21.7954 L22.2808,18.8064 C22.3038,15.9994 24.5738,13.7314 27.3788,13.7064 L30.2738,13.7064 C33.0798,13.7314 35.3488,15.9994 35.3728,18.8064 L35.3728,21.9494 C35.3728,22.3274 35.0668,22.6334 34.6898,22.6334 L31.8248,22.6334 C31.4468,22.6334 31.1408,22.3274 31.1408,21.9494 L31.1408,18.8064 C31.1408,18.4264 31.4488,18.1184 31.8278,18.1184 C32.2068,18.1184 32.5148,18.4264 32.5148,18.8064 L32.5148,21.2154 L33.9838,21.2154 L33.9838,18.8064 C33.9838,16.7474 32.3178,15.0774 30.2598,15.0734 L27.3868,15.0734 C25.3278,15.0774 23.6618,16.7474 23.6618,18.8064 L23.6618,22.4794 C23.6638,22.6624 23.5918,22.8394 23.4618,22.9694 C23.3318,23.1004 23.1548,23.1714 22.9708,23.1694 Z" id="Stroke-15"></path>
                    <path d="M28.6427,5.5591 C27.0197,5.5591 25.7047,6.8741 25.7047,8.4971 C25.7047,10.1211 27.0197,11.4371 28.6427,11.4371 C30.2657,11.4371 31.5817,10.1211 31.5817,8.4971 C31.5617,6.8891 30.2517,5.5961 28.6427,5.5961 L28.6427,5.5591 Z M28.6427,12.9061 C26.2447,12.9061 24.3007,10.9621 24.3007,8.5641 C24.3007,6.1651 26.2447,4.2221 28.6427,4.2221 C31.0407,4.2221 32.9847,6.1651 32.9847,8.5641 C32.9807,10.9601 31.0387,12.9021 28.6427,12.9061 Z" id="Stroke-19"></path>
                    <path d="M17.4459,2.2602 C15.8229,2.2602 14.5079,3.5752 14.5079,5.1982 C14.5079,6.8222 15.8229,8.1382 17.4459,8.1382 C19.0689,8.1382 20.3849,6.8222 20.3849,5.1982 C20.3649,3.5902 19.0549,2.2972 17.4459,2.2972 L17.4459,2.2602 Z M17.4459,9.6072 C15.0479,9.6072 13.1039,7.6632 13.1039,5.2652 C13.1039,2.8672 15.0479,0.9232 17.4459,0.9232 C19.8439,0.9232 21.7879,2.8672 21.7879,5.2652 C21.7839,7.6612 19.8419,9.6032 17.4459,9.6072 Z" id="Stroke-23"></path>
                </g>
                <g id="download" transform="translate(2.000000, 90.000000)">
                    <path d="M17.2169,29.1382 C16.7349,29.1712 16.3179,28.8082 16.2839,28.3262 C16.2499,27.8452 16.6129,27.4272 17.0949,27.3942 C23.6709,26.4662 28.4089,20.6102 27.9439,13.9862 C27.4779,7.3612 21.9679,2.2242 15.3279,2.2242 C8.6869,2.2242 3.1769,7.3612 2.7119,13.9862 C2.2469,20.6102 6.9849,26.4662 13.5609,27.3942 C13.8699,27.4382 14.1339,27.6432 14.2509,27.9332 C14.3679,28.2232 14.3209,28.5542 14.1289,28.8002 C13.9359,29.0472 13.6269,29.1722 13.3169,29.1282 C5.8279,28.0752 0.4299,21.4082 0.9579,13.8632 C1.4869,6.3192 7.7599,0.4692 15.3229,0.4692 C22.8859,0.4692 29.1599,6.3192 29.6879,13.8632 C30.2159,21.4082 24.8179,28.0752 17.3289,29.1282 L17.2169,29.1282 L17.2169,29.1382 Z" id="Fill-25"></path>
                </g>
                <path d="M17.1544,109.8374 C16.6724,109.8374 16.2824,109.4474 16.2824,108.9664 L16.2824,97.1444 C16.2824,96.6594 16.6754,96.2674 17.1584,96.2674 C17.6434,96.2674 18.0354,96.6594 18.0354,97.1444 L18.0354,108.9564 C18.0384,109.1914 17.9464,109.4164 17.7804,109.5824 C17.6144,109.7484 17.3884,109.8404 17.1544,109.8374" id="Fill-27"></path>
                <path d="M17.2198,109.9311 C16.8618,109.9371 16.5358,109.7231 16.3998,109.3921 C16.2628,109.0611 16.3428,108.6801 16.6008,108.4311 L20.5948,104.4381 C20.8158,104.2161 21.1378,104.1301 21.4398,104.2111 C21.7418,104.2921 21.9778,104.5281 22.0588,104.8291 C22.1398,105.1321 22.0528,105.4541 21.8318,105.6751 L17.8388,109.6691 C17.6758,109.8351 17.4528,109.9301 17.2198,109.9311" id="Fill-29"></path>
                <path d="M17.2013,109.9311 C16.9693,109.9331 16.7463,109.8411 16.5823,109.6781 L12.5883,105.6751 C12.2463,105.3331 12.2463,104.7801 12.5883,104.4381 C12.9303,104.0961 13.4843,104.0961 13.8263,104.4381 L17.8203,108.3941 C18.1083,108.6361 18.2083,109.0371 18.0683,109.3871 C17.9273,109.7371 17.5773,109.9561 17.2013,109.9311" id="Fill-31"></path>
                <path d="M22.526,112.4536 L12.213,112.4536 C11.73,112.4536 11.337,112.0606 11.337,111.5766 C11.337,111.0926 11.73,110.7006 12.213,110.7006 L22.526,110.7006 C22.839,110.7006 23.129,110.8676 23.285,111.1386 C23.442,111.4096 23.442,111.7436 23.285,112.0156 C23.129,112.2866 22.839,112.4536 22.526,112.4536" id="Fill-33"></path>
                <path d="M21.5621,72.7026 L15.5801,78.6846 L12.9331,76.0376 C12.7911,75.8976 12.7341,75.6926 12.7851,75.4996 C12.8351,75.3066 12.9851,75.1556 13.1781,75.1026 C13.3701,75.0496 13.5761,75.1036 13.7181,75.2446 L15.5531,77.0786 L20.7501,71.8826 C20.9771,71.6586 21.3421,71.6606 21.5661,71.8866 C21.7911,72.1136 21.7891,72.4786 21.5621,72.7026" id="Fill-39"></path>
                <g id="career-certifications" transform="translate(2.000000, 59.000000)">
                    <path d="M11.1886,23.1177 C11.3146,23.1187 11.4386,23.1487 11.5506,23.2057 C12.2826,23.5697 13.0646,23.8227 13.8706,23.9557 C14.2686,24.0207 14.5606,24.3647 14.5596,24.7677 L14.5596,27.9967 C14.5596,28.3917 14.8786,28.7117 15.2736,28.7117 L16.8176,28.7117 C17.2136,28.7117 17.5366,28.3927 17.5416,27.9967 L17.5416,24.3707 C17.5366,24.0187 17.7566,23.7027 18.0886,23.5857 C18.8026,23.3447 19.4796,23.0057 20.1006,22.5787 C20.4286,22.3487 20.8736,22.3867 21.1596,22.6677 L23.6296,25.1647 C23.7656,25.3007 23.9496,25.3767 24.1416,25.3767 C24.3336,25.3767 24.5176,25.3007 24.6536,25.1647 L25.7386,24.0787 C25.8736,23.9457 25.9496,23.7627 25.9496,23.5717 C25.9496,23.3817 25.8736,23.1987 25.7386,23.0647 L23.0126,20.3387 C22.7616,20.0907 22.6986,19.7107 22.8536,19.3937 C23.1586,18.7627 23.3846,18.0957 23.5236,17.4087 C23.6036,17.0287 23.9386,16.7557 24.3266,16.7557 L28.0416,16.7557 C28.2336,16.7587 28.4196,16.6827 28.5556,16.5467 C28.6916,16.4097 28.7676,16.2247 28.7656,16.0327 L28.7656,14.4967 C28.7656,14.0967 28.4406,13.7737 28.0416,13.7737 L24.1416,13.7737 C23.7796,13.7737 23.4606,13.5367 23.3556,13.1907 C23.1406,12.5197 22.8446,11.8767 22.4736,11.2767 C22.2736,10.9507 22.3246,10.5297 22.5976,10.2617 L25.1736,7.7027 C25.3126,7.5717 25.3916,7.3907 25.3946,7.1997 C25.3956,7.0077 25.3196,6.8237 25.1826,6.6877 L24.0886,5.6027 C23.9526,5.4677 23.7686,5.3907 23.5766,5.3907 C23.3846,5.3907 23.2006,5.4677 23.0646,5.6027 L20.4176,8.2497 C20.1566,8.5127 19.7516,8.5667 19.4296,8.3827 C18.7776,7.9977 18.0776,7.7007 17.3476,7.4997 C16.9846,7.4077 16.7306,7.0807 16.7296,6.7057 L16.7296,3.2907 C16.7296,2.8967 16.4096,2.5757 16.0156,2.5757 L14.5066,2.5757 C14.1136,2.5807 13.7966,2.8987 13.7916,3.2907 L13.7916,6.7057 C13.7946,7.0837 13.5406,7.4157 13.1736,7.5087 C12.3786,7.7097 11.6166,8.0277 10.9156,8.4527 C10.5896,8.6537 10.1686,8.6017 9.9006,8.3287 L7.7476,6.1497 C7.6086,6.0017 7.4116,5.9237 7.2096,5.9377 C7.0206,5.9387 6.8386,6.0147 6.7066,6.1497 L5.6116,7.2357 C5.3346,7.5167 5.3346,7.9687 5.6116,8.2497 L7.8356,10.4737 C8.1026,10.7367 8.1566,11.1467 7.9676,11.4707 C7.5356,12.2207 7.2226,13.0337 7.0416,13.8797 C6.9616,14.2597 6.6266,14.5327 6.2386,14.5327 L3.3356,14.5327 C2.9426,14.5367 2.6256,14.8547 2.6206,15.2467 L2.6206,16.7907 C2.6206,17.1857 2.9406,17.5057 3.3356,17.5057 L6.4326,17.5057 C6.7936,17.5057 7.1126,17.7427 7.2176,18.0887 C7.4716,18.9227 7.8556,19.7117 8.3556,20.4267 C8.5826,20.7537 8.5426,21.1967 8.2596,21.4767 L6.1596,23.5857 C6.0316,23.7307 5.9686,23.9217 5.9826,24.1147 C5.9826,24.3037 6.0596,24.4847 6.1946,24.6177 L7.2446,25.7027 C7.5256,25.9797 7.9776,25.9797 8.2596,25.7027 L10.5976,23.3647 C10.7526,23.2057 10.9666,23.1167 11.1886,23.1177 M16.8266,30.3617 L15.2826,30.3617 C13.9766,30.3617 12.9176,29.3027 12.9176,27.9967 L12.9176,25.4467 C12.3906,25.3197 11.8736,25.1477 11.3736,24.9347 L9.4326,26.8767 C8.5056,27.8007 7.0066,27.8007 6.0796,26.8767 L4.9946,25.7827 C4.5486,25.3387 4.2976,24.7357 4.2976,24.1057 C4.2976,23.4767 4.5486,22.8727 4.9946,22.4297 L6.6176,20.8057 C6.3066,20.2867 6.0436,19.7407 5.8326,19.1737 L3.3356,19.1737 C2.7076,19.1757 2.1036,18.9277 1.6576,18.4837 C1.2126,18.0397 0.9616,17.4377 0.9616,16.8087 L0.9616,15.2647 C0.9666,13.9567 2.0286,12.8997 3.3356,12.8997 L5.5856,12.8997 C5.7526,12.3257 5.9716,11.7677 6.2386,11.2327 L4.4736,9.4677 C3.5496,8.5407 3.5496,7.0407 4.4736,6.1147 L5.5416,4.9767 C5.9826,4.5337 6.5836,4.2847 7.2096,4.2877 C7.8386,4.2857 8.4426,4.5377 8.8856,4.9857 L10.6506,6.7497 C11.1336,6.4877 11.6386,6.2657 12.1596,6.0887 L12.1596,3.2907 C12.1736,2.0007 13.2156,0.9587 14.5066,0.9437 L16.0506,0.9437 C17.3496,0.9437 18.4056,1.9927 18.4156,3.2907 L18.4156,6.0887 C18.8616,6.2347 19.2986,6.4107 19.7206,6.6177 L21.8646,4.4377 C22.7906,3.5197 24.2836,3.5197 25.2096,4.4377 L26.3036,5.5237 C26.7516,5.9667 27.0036,6.5697 27.0036,7.1997 C27.0036,7.8297 26.7516,8.4337 26.3036,8.8767 L24.1766,11.0027 C24.3806,11.3627 24.5636,11.7337 24.7236,12.1147 L28.0416,12.1147 C29.3466,12.1197 30.4056,13.1737 30.4156,14.4797 L30.4156,16.0237 C30.4156,17.3357 29.3536,18.4007 28.0416,18.4057 L24.9706,18.4057 C24.8566,18.8027 24.7186,19.1907 24.5566,19.5707 L26.8766,21.8907 C27.8006,22.8147 27.8006,24.3117 26.8766,25.2357 L25.7916,26.3287 C24.8626,27.2487 23.3676,27.2487 22.4386,26.3287 L20.4266,24.3177 C20.0276,24.5557 19.6116,24.7647 19.1826,24.9437 L19.1826,27.9967 C19.1776,29.2977 18.1276,30.3517 16.8266,30.3617" id="Fill-41"></path>
                </g>
                <path d="M23.9791,12.563 L11.6511,12.563 C11.1671,12.563 10.7741,12.17 10.7741,11.686 C10.7741,11.202 11.1671,10.81 11.6511,10.81 L23.9791,10.81 C24.4631,10.81 24.8551,11.202 24.8551,11.686 C24.8551,12.17 24.4631,12.563 23.9791,12.563" id="Fill-43"></path>
                <path d="M23.9791,17.0532 L11.6511,17.0532 C11.1671,17.0532 10.7741,16.6612 10.7741,16.1772 C10.7741,15.6932 11.1671,15.3002 11.6511,15.3002 L23.9791,15.3002 C24.4631,15.3002 24.8551,15.6932 24.8551,16.1772 C24.8551,16.6612 24.4631,17.0532 23.9791,17.0532" id="Fill-45"></path>
                <path d="M18.8136,21.5908 L11.6506,21.5908 C11.1676,21.5908 10.7746,21.1978 10.7746,20.7148 C10.7746,20.2308 11.1676,19.8378 11.6506,19.8378 L18.8136,19.8378 C19.2976,19.8378 19.6896,20.2308 19.6896,20.7148 C19.6896,21.1978 19.2976,21.5908 18.8136,21.5908" id="Fill-47"></path>
                <path d="M28.4229,7.6782 L24.1289,7.6782 C22.8969,7.6782 21.8979,6.6792 21.8979,5.4472 L21.8979,1.5192 C21.8979,1.0352 22.2909,0.6422 22.7749,0.6422 C23.2579,0.6422 23.6509,1.0352 23.6509,1.5192 L23.6509,5.4472 C23.6559,5.7092 23.8669,5.9202 24.1289,5.9252 L28.4229,5.9252 C28.9069,5.9252 29.2989,6.3182 29.2989,6.8022 C29.2989,7.2862 28.9069,7.6782 28.4229,7.6782" id="Fill-51"></path>
                <g id="note" transform="translate(6.000000, 0.000000)">
                    <path d="M21.2511,29.2129 L2.4171,29.2129 C1.1841,29.2129 0.1861,28.2139 0.1861,26.9819 L0.1861,2.2219 C0.1901,0.9939 1.1881,0.0009 2.4171,0.0009 L16.8451,0.0009 C17.0831,0.0019 17.3091,0.0999 17.4731,0.2719 L23.0981,6.0939 C23.4351,6.4429 23.4241,6.9999 23.0741,7.3369 C22.7251,7.6729 22.1691,7.6619 21.8321,7.3129 L16.4791,1.7439 L2.4171,1.7439 C2.1551,1.7489 1.9431,1.9599 1.9391,2.2219 L1.9391,26.9909 C1.9431,27.2529 2.1551,27.4639 2.4171,27.4689 L21.2511,27.4689 C21.5131,27.4639 21.7241,27.2529 21.7291,26.9909 L21.7291,10.2379 C21.7291,9.7539 22.1221,9.3609 22.6051,9.3609 C23.0901,9.3609 23.4821,9.7539 23.4821,10.2379 L23.4821,26.9909 C23.4771,28.2199 22.4801,29.2129 21.2511,29.2129" id="Fill-49"></path>
                </g>
                <g id="chat" transform="translate(0.000000, 150.000000)">
                    <path d="M29.234,28.8345 C29.023,28.8355 28.818,28.7575 28.661,28.6165 L22.87,23.3985 L11.598,23.3985 C11.128,23.3985 10.748,23.0185 10.748,22.5485 C10.748,22.0795 11.128,21.6985 11.598,21.6985 L23.207,21.6985 C23.418,21.6975 23.622,21.7755 23.779,21.9165 L28.398,26.0715 L28.398,22.5445 C28.398,22.0765 28.776,21.6985 29.243,21.6985 L32.307,21.6985 L32.307,7.7165 L26.534,7.7165 C26.067,7.7165 25.689,7.3385 25.689,6.8715 L25.689,2.2075 L2.661,2.2075 L2.661,16.1895 L6.507,16.1895 C6.974,16.1895 7.352,16.5675 7.352,17.0345 L7.352,20.5535 L11.97,16.3985 C12.12,16.2695 12.309,16.1945 12.507,16.1895 L25.679,16.1895 L25.679,10.0625 C25.679,9.5935 26.06,9.2125 26.529,9.2125 C26.999,9.2125 27.38,9.5935 27.38,10.0625 L27.38,17.0345 C27.38,17.5015 27.001,17.8805 26.534,17.8805 L12.898,17.8805 L7.052,23.1075 C6.805,23.3355 6.445,23.3955 6.137,23.2595 C5.83,23.1225 5.632,22.8165 5.634,22.4805 L5.634,17.9355 L1.816,17.9355 C1.58,17.9385 1.354,17.8425 1.192,17.6715 C1.03,17.5005 0.946,17.2705 0.962,17.0345 L0.962,1.3535 C0.962,0.8865 1.34,0.5075 1.807,0.5075 L26.534,0.5075 C27.001,0.5075 27.38,0.8865 27.38,1.3535 L27.38,6.0075 L33.143,6.0075 C33.61,6.0075 33.988,6.3865 33.988,6.8535 L33.988,22.5445 C33.988,23.0115 33.61,23.3895 33.143,23.3895 L30.088,23.3895 L30.088,27.9355 C30.104,28.1705 30.02,28.4005 29.858,28.5715 C29.696,28.7425 29.47,28.8385 29.234,28.8345" id="Fill-53"></path>
                </g>
                <g id="education-2" transform="translate(4.000000, 33.000000)" fill-rule="nonzero">
                    <path d="M27.9120001,10.9047619 L24.9240001,10.9047619 L24.9240001,7.94047619 C24.9240001,7.4440774 24.5183701,7.04166667 24.0180001,7.04166667 C23.5176301,7.04166667 23.1120001,7.4440774 23.1120001,7.94047619 L23.1120001,10.9047619 L20.1240001,10.9047619 C19.6236301,10.9047619 19.2180001,11.3071726 19.2180001,11.8035714 C19.2180001,12.2999702 19.6236301,12.702381 20.1240001,12.702381 L23.1120001,12.702381 L23.1120001,15.6666667 C23.1120001,16.1630655 23.5176301,16.5654762 24.0180001,16.5654762 C24.5183701,16.5654762 24.9240001,16.1630655 24.9240001,15.6666667 L24.9240001,12.702381 L27.9120001,12.702381 C28.4123701,12.702381 28.8180001,12.2999702 28.8180001,11.8035714 C28.8180001,11.3071726 28.4123701,10.9047619 27.9120001,10.9047619 L27.9120001,10.9047619 Z" id="Shape"></path>
                    <path d="M17.7360001,24.5357143 C16.2688059,24.5300653 14.9843187,23.5573226 14.5920001,22.1547619 L13.8720001,20.0357143 L7.1160001,20.0357143 L6.4200001,22.1428571 C6.02648174,23.5496647 4.73565106,24.5234944 3.2640001,24.5238095 C2.4050239,24.5430361 1.57450573,24.2179133 0.96022589,23.6219514 C0.345946046,23.0259895 -0.00021850016,22.2095186 1.03473605e-07,21.3571429 C0.00324557356,20.9510199 0.0762930478,20.5484214 0.216000103,20.1666667 L6.3120001,3.41666667 C7.1160001,1.14285714 8.5320001,0 10.5120001,0 C12.4920001,0 13.9440001,1.19047619 14.7480001,3.42857143 L20.7480001,20.1785714 C20.8877072,20.5603262 20.9607546,20.9629247 20.9640001,21.3690476 C20.9640543,22.2151245 20.622818,23.0260386 20.0163931,23.6209412 C19.4099682,24.2158438 18.5887914,24.5452565 17.7360001,24.5357143 L17.7360001,24.5357143 Z M6.4560001,18.297619 L14.5200001,18.297619 C14.9102276,18.2927579 15.2591482,18.5379485 15.3840001,18.9047619 L16.3080001,21.6309524 C16.4696634,22.28085 17.0613042,22.7346228 17.7360001,22.7261905 C18.1133888,22.7423542 18.4811947,22.605669 18.7549996,22.3475064 C19.0288046,22.0893438 19.1850953,21.7318741 19.1880001,21.3571429 C19.1877546,21.1500807 19.15121,20.9446385 19.0800001,20.75 L13.0800001,3.98809524 C12.3840001,2.02380952 11.4120001,1.76190476 10.5480001,1.76190476 C9.6840001,1.76190476 8.7480001,2.02380952 8.0520001,3.98809524 L1.9440001,20.75 L1.9440001,20.75 C1.87279017,20.9446385 1.83624563,21.1500807 1.8360001,21.3571429 C1.83890494,21.7318741 1.99519558,22.0893438 2.26900056,22.3475064 C2.54280555,22.605669 2.91061137,22.7423542 3.2880001,22.7261905 C3.96269599,22.7346228 4.55433684,22.28085 4.7160001,21.6309524 L5.6040001,18.9047619 C5.72746278,18.5421291 6.070179,18.2979065 6.4560001,18.297619 L6.4560001,18.297619 Z M13.1520001,15.9761905 L7.8480001,15.9761905 C7.55310612,15.9812359 7.27443358,15.8426193 7.10210001,15.6051667 C6.92976644,15.3677142 6.88564364,15.0615621 6.9840001,14.7857143 L9.6000001,6.95238095 C9.72064442,6.58085821 10.070565,6.33014349 10.4640001,6.33333333 L10.5600001,6.33333333 C10.9534352,6.33014349 11.3033558,6.58085821 11.4240001,6.95238095 L14.0160001,14.7857143 C14.1143566,15.0615621 14.0702338,15.3677142 13.8979002,15.6051667 C13.7255666,15.8426193 13.4468941,15.9812359 13.1520001,15.9761905 L13.1520001,15.9761905 Z M9.0480001,14.1785714 L11.8560001,14.1785714 L10.4640001,9.96428571 L9.0480001,14.1785714 Z" id="Shape"></path>
                </g>
                <g id="find-people" transform="translate(5.000000, 180.000000)">
                    <path d="M22.2136905,0.20024 L4.02083333,0.20024 C2.75892857,0.20024 1.73630952,1.23104 1.73630952,2.50304 L1.73630952,26.67344 C1.73630952,27.94544 2.75892857,28.97624 4.02083333,28.97624 L22.2136905,28.97624 C23.4755952,28.97624 24.4982143,27.94544 24.4982143,26.67344 L24.4982143,2.50304 C24.4982143,1.23104 23.4755952,0.20024 22.2136905,0.20024 M22.2136905,1.88024 C22.5541667,1.88024 22.8315476,2.15984 22.8315476,2.50304 L22.8315476,26.67344 C22.8315476,27.01664 22.5541667,27.29624 22.2136905,27.29624 L4.02083333,27.29624 C3.68035714,27.29624 3.40297619,27.01664 3.40297619,26.67344 L3.40297619,2.50304 C3.40297619,2.15984 3.68035714,1.88024 4.02083333,1.88024 L22.2136905,1.88024" id="Fill-1"></path>
                    <path d="M4.21583333,8.012 L0.893214286,8.012 C0.400357143,8.012 0.000357142857,8.4152 0.000357142857,8.912 C0.000357142857,9.4088 0.400357143,9.812 0.893214286,9.812 L4.22892857,9.812 L4.21583333,9.812 C4.70869048,9.812 5.10869048,9.4088 5.10869048,8.912 C5.10869048,8.4152 4.70869048,8.012 4.21583333,8.012" id="Fill-4"></path>
                    <path d="M4.21583333,19.088 L0.893214286,19.088 C0.400357143,19.088 0.000357142857,19.4912 0.000357142857,19.988 C0.000357142857,20.4848 0.400357143,20.888 0.893214286,20.888 L4.22892857,20.888 L4.21583333,20.888 C4.70869048,20.888 5.10869048,20.4848 5.10869048,19.988 C5.10869048,19.4912 4.70869048,19.088 4.21583333,19.088" id="Fill-6"></path>
                    <path d="M14.9603571,14.2364 L12.2567857,14.2364 C9.63654762,14.2364 7.5127381,16.3772 7.5127381,19.0184 L7.5127381,22.3424 C7.47583333,22.7396 7.76392857,23.0924 8.15797619,23.1296 C8.17702381,23.132 8.19607143,23.1332 8.21511905,23.1332 C8.59607143,23.1332 8.90440476,22.8212 8.90440476,22.4372 L8.90440476,19.0316 C8.90440476,17.1656 10.4055952,15.6536 12.2567857,15.6536 L14.9603571,15.6536 C15.8484524,15.6548 16.6996429,16.0124 17.3246429,16.6472 C18.0722619,17.486 18.4305952,18.6056 18.3115476,19.7264 L18.3115476,21.92 L17.0686905,21.92 L17.0686905,19.7264 C17.1436905,19.3508 16.9020238,18.9848 16.5282143,18.9092 C16.1555952,18.8336 15.7913095,19.0772 15.7175,19.4528 C15.6984524,19.5428 15.6984524,19.6364 15.7175,19.7264 L15.7175,22.6148 C15.7175,22.9988 16.0258333,23.3108 16.4067857,23.3108 L19.0282143,23.3108 C19.4091667,23.3108 19.7175,22.9988 19.7175,22.6148 L19.7175,19.7264 C19.7044048,16.388 17.5686905,14.2364 14.9603571,14.2364" id="Fill-8"></path>
                    <path d="M13.6222619,12.4106 C12.0472619,12.4106 10.769881,11.123 10.769881,9.5354 C10.769881,7.9478 12.0472619,6.6602 13.6222619,6.6602 C15.1972619,6.6602 16.4746429,7.9478 16.4746429,9.5354 C16.4746429,11.123 15.1972619,12.4106 13.6222619,12.4106 M13.6222619,5.4614 C11.3829762,5.4614 9.5675,7.2914 9.5675,9.5498 C9.5675,11.807 11.3829762,13.6358 13.6222619,13.6358 C15.8615476,13.6358 17.6770238,11.807 17.6770238,9.5498 C17.6770238,7.2914 15.8615476,5.4614 13.6222619,5.4614" id="Fill-10"></path>
                </g>
                <g id="Group" transform="translate(4.000000, 211.000000)" fill-rule="nonzero">
                    <path d="M24.9731554,22.0304271 L15.603021,13.452135 C15.3908475,13.2556781 15.2995996,12.9609511 15.3636495,12.678975 C15.4276995,12.3969988 15.6373166,12.1706124 15.9135401,12.0850932 C16.1897636,11.999574 16.4906286,12.0679145 16.7028021,12.2643715 L26.0729364,20.8426636 L24.9731554,22.0304271 Z" id="Shape"></path>
                    <path d="M21.1789108,25.9126541 C20.9542794,25.9151389 20.7388819,25.8233956 20.5850291,25.6597045 L9.69719691,13.9580343 C7.26362663,14.8264636 4.5471006,14.1946134 2.74658082,12.3413562 C1.12469186,10.7092788 0.455854028,8.35796076 0.975933362,6.11659559 C1.03854455,5.82960348 1.25289142,5.59971709 1.53480704,5.5172052 C1.81672267,5.43469331 2.12119354,5.51273061 2.32866403,5.72067442 L5.46303996,8.85505035 L8.76238304,5.55570727 L5.54002463,2.33334885 C5.33215219,2.12741864 5.25277833,1.82470277 5.3328611,1.54326903 C5.41294388,1.26183529 5.63979956,1.04625791 5.92494799,0.980618188 C8.21489086,0.453554062 10.6150829,1.13873 12.2816823,2.79525688 C14.2306947,4.72947622 14.7782047,7.66851004 13.6564086,10.1747876 C13.4772279,10.5817404 13.0020728,10.7663861 12.59512,10.5872054 C12.1881672,10.4080247 12.0035214,9.9328696 12.182702,9.52591678 C13.0469768,7.62599355 12.6293301,5.38828658 11.1379101,3.92803134 C10.2725848,3.06506898 9.13261144,2.53204388 7.91555165,2.42133134 L10.4670436,4.97282332 C10.7575567,5.28186154 10.7575567,5.76356613 10.4670436,6.07260435 L6.06791952,10.4717285 C5.7588813,10.7622416 5.27717671,10.7622416 4.96813849,10.4717285 L2.48263337,8.06320801 C2.62501191,9.69632347 3.54822818,11.1598173 4.96081265,11.9916483 C6.37339712,12.8234794 8.10100693,12.920982 9.59821662,12.2533737 C9.91476709,12.1012438 10.2934573,12.1725267 10.5330305,12.4293387 L21.805786,24.52693 C22.0573543,24.761854 22.1311788,25.1310013 21.9893093,25.4446077 C21.8474398,25.758214 21.5214469,25.9464915 21.1789108,25.9126541 L21.1789108,25.9126541 Z" id="Shape"></path>
                    <path d="M23.5434401,27.1224132 C21.5268977,27.1224132 19.892167,25.4876826 19.892167,23.4711402 C19.892167,21.4545978 21.5268977,19.8198672 23.5434401,19.8198672 C25.5599825,19.8198672 27.1947131,21.4545978 27.1947131,23.4711402 C27.1947131,25.4876826 25.5599825,27.1224132 23.5434401,27.1224132 L23.5434401,27.1224132 Z M23.5434401,21.4365453 C22.4211996,21.4365617 21.5108893,22.3452554 21.5088781,23.4674941 C21.506867,24.5897328 22.4139146,25.5016833 23.5361478,25.5057219 C24.658381,25.5097606 25.5719688,24.6043621 25.578035,23.482138 C25.5780512,22.3566694 24.6688924,21.4425962 23.5434401,21.4365453 Z" id="Shape"></path>
                </g>
                <g id="note" transform="translate(6.000000, 240.000000)">
                    <path d="M21.2511,29.2129 L2.4171,29.2129 C1.1841,29.2129 0.1861,28.2139 0.1861,26.9819 L0.1861,2.2219 C0.1901,0.9939 1.1881,0.0009 2.4171,0.0009 L16.8451,0.0009 C17.0831,0.0019 17.3091,0.0999 17.4731,0.2719 L23.0981,6.0939 C23.4351,6.4429 23.4241,6.9999 23.0741,7.3369 C22.7251,7.6729 22.1691,7.6619 21.8321,7.3129 L16.4791,1.7439 L2.4171,1.7439 C2.1551,1.7489 1.9431,1.9599 1.9391,2.2219 L1.9391,26.9909 C1.9431,27.2529 2.1551,27.4639 2.4171,27.4689 L21.2511,27.4689 C21.5131,27.4639 21.7241,27.2529 21.7291,26.9909 L21.7291,10.2379 C21.7291,9.7539 22.1221,9.3609 22.6051,9.3609 C23.0901,9.3609 23.4821,9.7539 23.4821,10.2379 L23.4821,26.9909 C23.4771,28.2199 22.4801,29.2129 21.2511,29.2129" id="Fill-49"></path>
                    <g id="arrow" transform="translate(11.500000, 15.000000) rotate(-90.000000) translate(-11.500000, -15.000000) translate(4.500000, 7.500000)">
                        <path d="M8.52497817,14.2265433 L8.52497817,8.57673694 C8.52497817,8.25778892 8.86409447,8 9.280871,8 C9.69937331,8 10.0376267,8.25778892 10.0376267,8.57673694 L10.0376267,14.219967 C10.0402154,14.3745089 9.9608294,14.5224744 9.81758943,14.6316401 C9.67434946,14.7408059 9.47933601,14.8013073 9.27741943,14.7993345 C8.8615058,14.7993345 8.52497817,14.5428608 8.52497817,14.2265433 Z" id="Fill-27"></path>
                        <path d="M1.38881794,10.1480449 C0.974639967,10.1480449 0.63888238,9.8122873 0.63888238,9.39810933 C0.517112892,6.97608489 1.42607501,4.61566128 3.14086803,2.90086826 C4.85566105,1.18607524 7.21608466,0.277113121 9.6381091,0.398882609 C9.6881048,0.398882609 9.78809621,1.87875545 9.59811254,1.88875459 C7.58600657,1.77112412 5.61957226,2.5191673 4.19436924,3.94437032 C2.76916621,5.36957335 2.02112303,7.33600766 2.1387535,9.34811362 C2.15261195,9.55552017 2.07976251,9.75937477 1.93759233,9.91102296 C1.79542216,10.0626711 1.59668645,10.1485074 1.38881794,10.1480449 Z" id="Shape" fill-rule="nonzero" transform="translate(5.168741, 5.268047) rotate(-270.000000) translate(-5.168741, -5.268047) "></path>
                        <path d="M9.76471498,14.3392146 C9.45577477,14.344786 9.17444934,14.1460717 9.05708658,13.8387146 C8.93886085,13.5313574 9.00789777,13.1775717 9.23054183,12.9463574 L12.6772099,9.2385717 C12.8679244,9.03242884 13.145798,8.9525717 13.4064124,9.02778598 C13.6670268,9.10300027 13.8706857,9.32214312 13.9405855,9.60164312 C14.0104854,9.88300027 13.9354078,10.1820003 13.7446933,10.3872146 L10.2988881,14.0959288 C10.1582254,14.2500717 9.965785,14.338286 9.76471498,14.3392146" id="Fill-29"></path>
                        <path d="M9.16808902,14.708128 C8.96788196,14.7099851 8.77544155,14.6245566 8.63391587,14.4731994 L5.18724776,10.756128 C4.89211493,10.4385566 4.89211493,9.92505658 5.18724776,9.60748515 C5.48238058,9.28991372 5.96046123,9.28991372 6.25559406,9.60748515 L9.70226217,13.2809137 C9.95079507,13.505628 10.0370912,13.8779851 9.91627662,14.2029851 C9.79459905,14.5279851 9.49256253,14.7313423 9.16808902,14.708128" id="Fill-31"></path>
                    </g>
                </g>
            </g>
        </g>
    </g>
</svg>