<?xml version="1.0" encoding="UTF-8"?>
<svg xmlns="http://www.w3.org/2000/svg" xmlns:xlink="http://www.w3.org/1999/xlink" width="49pt" height="48pt" viewBox="0 0 49 48" version="1.1">
<g id="surface1">
<path style=" stroke:none;fill-rule:evenodd;fill:rgb(12.156863%,60%,38.039216%);fill-opacity:1;" d="M 18.554688 0.601562 C 19.898438 -0.199219 21.566406 -0.199219 22.910156 0.601562 L 33.0625 6.628906 C 32.433594 7.90625 32.078125 9.355469 32.078125 10.882812 C 32.078125 16.132812 36.242188 20.386719 41.378906 20.386719 L 41.464844 20.386719 L 41.464844 33.652344 C 41.464844 35.230469 40.660156 36.683594 39.347656 37.496094 L 39.285156 37.535156 L 22.910156 47.257812 C 21.566406 48.058594 19.898438 48.058594 18.554688 47.257812 L 2.179688 37.535156 C 0.828125 36.734375 0 35.253906 0 33.652344 L 0 14.203125 C 0 12.601562 0.828125 11.125 2.179688 10.324219 Z M 30.140625 29.371094 L 11.835938 29.371094 C 11.234375 29.371094 10.75 29.871094 10.75 30.484375 L 10.75 31.019531 C 10.75 31.636719 11.234375 32.132812 11.835938 32.132812 L 30.140625 32.132812 C 30.742188 32.132812 31.226562 31.636719 31.226562 31.019531 L 31.226562 30.484375 C 31.226562 29.871094 30.742188 29.371094 30.140625 29.371094 Z M 25.015625 22.289062 L 11.671875 22.289062 C 11.066406 22.289062 10.582031 22.789062 10.582031 23.402344 L 10.582031 23.9375 C 10.582031 24.550781 11.066406 25.050781 11.671875 25.050781 L 25.015625 25.050781 C 25.621094 25.050781 26.105469 24.550781 26.105469 23.9375 L 26.105469 23.402344 C 26.105469 22.789062 25.621094 22.289062 25.015625 22.289062 Z M 41.464844 2.765625 C 45.703125 2.765625 49.140625 6.285156 49.140625 10.625 C 49.140625 14.964844 45.703125 18.488281 41.464844 18.488281 C 37.222656 18.488281 33.785156 14.964844 33.785156 10.625 C 33.785156 6.285156 37.222656 2.765625 41.464844 2.765625 Z M 30.140625 15.550781 L 11.835938 15.550781 C 11.234375 15.550781 10.75 16.050781 10.75 16.664062 L 10.75 17.199219 C 10.75 17.816406 11.234375 18.316406 11.835938 18.316406 L 30.140625 18.316406 C 30.742188 18.316406 31.226562 17.816406 31.226562 17.199219 L 31.226562 16.664062 C 31.226562 16.050781 30.742188 15.550781 30.140625 15.550781 Z M 43.695312 7.601562 L 39.734375 7.601562 L 39.578125 11.355469 C 39.808594 11.269531 40.074219 11.199219 40.367188 11.148438 C 40.664062 11.09375 40.925781 11.070312 41.15625 11.070312 C 41.3125 11.070312 41.472656 11.082031 41.632812 11.113281 C 41.78125 11.140625 41.925781 11.195312 42.054688 11.277344 C 42.183594 11.351562 42.285156 11.460938 42.363281 11.585938 C 42.441406 11.714844 42.480469 11.878906 42.480469 12.070312 C 42.480469 12.386719 42.386719 12.621094 42.191406 12.78125 C 42 12.945312 41.777344 13.023438 41.515625 13.023438 C 41.257812 13.023438 41.035156 12.949219 40.851562 12.800781 C 40.667969 12.660156 40.535156 12.460938 40.472656 12.234375 L 39.074219 12.671875 C 39.144531 12.925781 39.261719 13.160156 39.417969 13.371094 C 39.570312 13.578125 39.761719 13.753906 39.976562 13.894531 C 40.199219 14.039062 40.441406 14.152344 40.695312 14.222656 C 40.960938 14.300781 41.238281 14.339844 41.53125 14.339844 C 41.84375 14.339844 42.152344 14.292969 42.453125 14.195312 C 42.742188 14.105469 43.011719 13.960938 43.253906 13.765625 C 43.488281 13.574219 43.671875 13.332031 43.8125 13.039062 C 43.953125 12.746094 44.023438 12.398438 44.023438 11.996094 C 44.023438 11.648438 43.960938 11.347656 43.839844 11.089844 C 43.71875 10.824219 43.554688 10.609375 43.34375 10.433594 C 43.132812 10.257812 42.886719 10.125 42.597656 10.039062 C 42.3125 9.953125 42.007812 9.910156 41.6875 9.910156 C 41.589844 9.910156 41.480469 9.914062 41.359375 9.925781 C 41.246094 9.933594 41.136719 9.949219 41.039062 9.976562 L 41.09375 8.9375 L 43.695312 8.9375 Z M 43.695312 7.601562 "/>
</g>
</svg>
